<?xml version="1.0" encoding="utf-8"?>
<!-- Generator: Adobe Illustrator 19.0.0, SVG Export Plug-In . SVG Version: 6.00 Build 0)  -->
<svg version="1.1" id="Layer_1" xmlns="http://www.w3.org/2000/svg" xmlns:xlink="http://www.w3.org/1999/xlink" x="0px" y="0px"
	 viewBox="0 0 600 600" style="enable-background:new 0 0 600 600;" xml:space="preserve">
<style type="text/css">
	.st0{fill:url(#XMLID_63_);}
	.st1{fill:url(#XMLID_64_);}
	.st2{fill:url(#XMLID_65_);}
	.st3{fill:url(#XMLID_66_);}
	.st4{fill:url(#XMLID_67_);}
	.st5{fill:url(#XMLID_68_);}
	.st6{fill:url(#XMLID_69_);}
	.st7{fill:url(#XMLID_70_);}
	.st8{fill:url(#XMLID_71_);}
	.st9{fill:url(#XMLID_72_);}
	.st10{fill:url(#XMLID_73_);}
	.st11{fill:url(#XMLID_74_);}
	.st12{fill:url(#XMLID_75_);}
	.st13{fill:url(#XMLID_76_);}
	.st14{fill:url(#XMLID_77_);}
	.st15{fill:url(#XMLID_78_);}
	.st16{fill:url(#XMLID_79_);}
	.st17{fill:url(#XMLID_80_);}
	.st18{fill:url(#XMLID_81_);}
	.st19{fill:url(#XMLID_82_);}
	.st20{fill:url(#XMLID_83_);}
	.st21{fill:url(#XMLID_84_);}
	.st22{fill:url(#XMLID_85_);}
	.st23{fill:url(#XMLID_86_);}
	.st24{fill:url(#XMLID_87_);}
	.st25{fill:#2D425A;}
	.st26{fill:#6B7B8B;}
</style>
<g id="XMLID_2_">
	<g id="XMLID_37_">
		<linearGradient id="XMLID_63_" gradientUnits="userSpaceOnUse" x1="129.1922" y1="178.9108" x2="219.2167" y2="259.8419">
			<stop  offset="0" style="stop-color:#6FCCDD"/>
			<stop  offset="1" style="stop-color:#EE559E"/>
		</linearGradient>
		<path id="XMLID_62_" class="st0" d="M143.6,195.8c3.1-1,4.8-4.3,3.7-7.4c-1-3.1-4.3-4.8-7.4-3.7c-3.1,1-4.8,4.3-3.7,7.4
			C137.2,195.1,140.5,196.8,143.6,195.8z"/>
		<linearGradient id="XMLID_64_" gradientUnits="userSpaceOnUse" x1="92.6476" y1="219.5614" x2="182.6721" y2="300.4926">
			<stop  offset="0" style="stop-color:#6FCCDD"/>
			<stop  offset="1" style="stop-color:#EE559E"/>
		</linearGradient>
		<path id="XMLID_61_" class="st1" d="M105,226.7c0.7-3.2-1.4-6.3-4.5-7c-3.2-0.7-6.3,1.4-7,4.5c-0.7,3.2,1.4,6.3,4.5,7
			C101.2,231.9,104.3,229.8,105,226.7z"/>
		<linearGradient id="XMLID_65_" gradientUnits="userSpaceOnUse" x1="123.0766" y1="185.7134" x2="213.1012" y2="266.6446">
			<stop  offset="0" style="stop-color:#6FCCDD"/>
			<stop  offset="1" style="stop-color:#EE559E"/>
		</linearGradient>
		<path id="XMLID_60_" class="st2" d="M134.8,215.6c2.3-0.7,4-2.4,4.9-4.4l0,0l0.2-0.3c3.4-7.1,9.6-8.2,14.9-5.8l0,0l0.2,0.1
			c1.3,0.5,2.7,0.6,4.1,0.2c3.1-1,4.9-4.4,3.8-7.6c-1-3.1-4.4-4.8-7.6-3.8c-1.5,0.5-2.6,1.5-3.3,2.8l0,0l-0.1,0.2
			c-3,5.1-8.6,7.7-15.7,3.8l0,0l-0.3-0.1c-1.9-1-4.1-1.2-6.3-0.5c-4.3,1.4-6.6,6-5.2,10.3C125.9,214.7,130.5,217,134.8,215.6z"/>
		<linearGradient id="XMLID_66_" gradientUnits="userSpaceOnUse" x1="113.7975" y1="196.0352" x2="203.822" y2="276.9664">
			<stop  offset="0" style="stop-color:#6FCCDD"/>
			<stop  offset="1" style="stop-color:#EE559E"/>
		</linearGradient>
		<path id="XMLID_59_" class="st3" d="M118,203c1.5,0.3,2.9-0.6,3.2-2.1c0.3-1.5-0.6-2.9-2.1-3.2c-1.5-0.3-2.9,0.6-3.2,2.1
			C115.6,201.2,116.6,202.7,118,203z"/>
		<linearGradient id="XMLID_67_" gradientUnits="userSpaceOnUse" x1="71.2437" y1="243.3703" x2="161.2682" y2="324.3015">
			<stop  offset="0" style="stop-color:#6FCCDD"/>
			<stop  offset="1" style="stop-color:#EE559E"/>
		</linearGradient>
		<circle id="XMLID_58_" class="st4" cx="94" cy="263.8" r="3.7"/>
		<linearGradient id="XMLID_68_" gradientUnits="userSpaceOnUse" x1="78.8891" y1="234.8658" x2="168.9137" y2="315.797">
			<stop  offset="0" style="stop-color:#6FCCDD"/>
			<stop  offset="1" style="stop-color:#EE559E"/>
		</linearGradient>
		<path id="XMLID_57_" class="st5" d="M94.4,248.8c-1,1.1-0.9,2.8,0.2,3.8c1.1,1,2.8,0.9,3.8-0.2c1-1.1,0.9-2.8-0.2-3.8
			C97.1,247.6,95.4,247.7,94.4,248.8z"/>
		<linearGradient id="XMLID_69_" gradientUnits="userSpaceOnUse" x1="141.1503" y1="165.609" x2="231.1749" y2="246.5402">
			<stop  offset="0" style="stop-color:#6FCCDD"/>
			<stop  offset="1" style="stop-color:#EE559E"/>
		</linearGradient>
		<circle id="XMLID_56_" class="st6" cx="173.2" cy="194.4" r="2.7"/>
		<linearGradient id="XMLID_70_" gradientUnits="userSpaceOnUse" x1="142.7857" y1="163.7898" x2="232.8103" y2="244.721">
			<stop  offset="0" style="stop-color:#6FCCDD"/>
			<stop  offset="1" style="stop-color:#EE559E"/>
		</linearGradient>
		<path id="XMLID_55_" class="st7" d="M198,213.4c2.2-2.4,2-6.1-0.5-8.3c-2.4-2.2-6.1-2-8.3,0.5c-2.2,2.4-2,6.1,0.5,8.3
			C192.1,216,195.8,215.8,198,213.4z"/>
		<linearGradient id="XMLID_71_" gradientUnits="userSpaceOnUse" x1="133.5954" y1="174.0128" x2="223.6199" y2="254.944">
			<stop  offset="0" style="stop-color:#6FCCDD"/>
			<stop  offset="1" style="stop-color:#EE559E"/>
		</linearGradient>
		<path id="XMLID_54_" class="st8" d="M207.6,240.6c1-1.1,0.9-2.8-0.2-3.8c-1.1-1-2.8-0.9-3.8,0.2c-1,1.1-0.9,2.8,0.2,3.8
			C205,241.8,206.7,241.7,207.6,240.6z"/>
		<linearGradient id="XMLID_72_" gradientUnits="userSpaceOnUse" x1="140.87" y1="165.9208" x2="230.8946" y2="246.852">
			<stop  offset="0" style="stop-color:#6FCCDD"/>
			<stop  offset="1" style="stop-color:#EE559E"/>
		</linearGradient>
		<path id="XMLID_53_" class="st9" d="M164.1,189.3c1.9-0.6,3-2.7,2.4-4.7c-0.6-1.9-2.7-3-4.7-2.4c-1.9,0.6-3,2.7-2.4,4.7
			C160,188.9,162.1,189.9,164.1,189.3z"/>
		<linearGradient id="XMLID_73_" gradientUnits="userSpaceOnUse" x1="106.1492" y1="204.5428" x2="196.1738" y2="285.4739">
			<stop  offset="0" style="stop-color:#6FCCDD"/>
			<stop  offset="1" style="stop-color:#EE559E"/>
		</linearGradient>
		<path id="XMLID_52_" class="st10" d="M128.8,253.6v1.1l0,0.4c0,3.3,0.8,5.6,2.1,6.8c1.4,1.2,4,1.8,7.9,1.8h24.7l0.4,0
			c3.6,0,6.1-0.7,7.4-1.8c1.4-1.2,2.1-3.6,2.1-7.1v-5.2l0-0.4c0-3.3-0.7-5.6-2.1-6.8c-1.4-1.2-4-1.8-7.8-1.8h-24.7v-8h26.1v4l8-1.7
			V234l0-0.4c-0.1-3-0.8-5.1-2.2-6.2c-1.5-1.1-4.1-1.7-7.7-1.7h-22.5l-0.4,0c-3.5,0-6,0.7-7.4,1.8c-1.4,1.2-2.2,3.6-2.2,7.1v4.2
			l0,0.4c0,3.3,0.8,5.6,2.2,6.8c1.4,1.2,4,1.8,7.8,1.8h24.6v8.7H137v-4.5L128.8,253.6z"/>
		<linearGradient id="XMLID_74_" gradientUnits="userSpaceOnUse" x1="133.5287" y1="174.087" x2="223.5532" y2="255.0182">
			<stop  offset="0" style="stop-color:#6FCCDD"/>
			<stop  offset="1" style="stop-color:#EE559E"/>
		</linearGradient>
		<path id="XMLID_51_" class="st11" d="M168.1,216.2c1.8,1.6,4.1,2.2,6.3,2l0,0l0.4,0c7.9-0.6,11.9,4.2,12.5,10l0,0l0,0.3
			c0.2,1.4,0.8,2.6,1.9,3.6c2.5,2.2,6.2,2,8.4-0.5c2.2-2.5,2-6.2-0.5-8.5c-1.2-1-2.6-1.5-4.1-1.5l0,0l-0.3,0
			c-5.9,0-11-3.6-11.1-11.7l0,0l0-0.3c-0.1-2.1-1-4.2-2.7-5.7c-3.4-3-8.5-2.7-11.5,0.6C164.4,208,164.7,213.1,168.1,216.2z"/>
		<linearGradient id="XMLID_75_" gradientUnits="userSpaceOnUse" x1="105.8723" y1="204.8508" x2="195.8969" y2="285.782">
			<stop  offset="0" style="stop-color:#6FCCDD"/>
			<stop  offset="1" style="stop-color:#EE559E"/>
		</linearGradient>
		<path id="XMLID_50_" class="st12" d="M105.2,208.5c2,0.4,4-0.9,4.4-2.9c0.4-2-0.9-4-2.9-4.4c-2-0.4-4,0.9-4.4,2.9
			C101.9,206.1,103.2,208.1,105.2,208.5z"/>
		<linearGradient id="XMLID_76_" gradientUnits="userSpaceOnUse" x1="106.6103" y1="204.0299" x2="196.6349" y2="284.961">
			<stop  offset="0" style="stop-color:#6FCCDD"/>
			<stop  offset="1" style="stop-color:#EE559E"/>
		</linearGradient>
		<path id="XMLID_49_" class="st13" d="M196.9,280.9c-2-0.4-4,0.9-4.4,2.9c-0.4,2,0.9,4,2.9,4.4c2,0.4,4-0.9,4.4-2.9
			C200.1,283.2,198.9,281.3,196.9,280.9z"/>
		<linearGradient id="XMLID_77_" gradientUnits="userSpaceOnUse" x1="116.7142" y1="192.7908" x2="206.7387" y2="273.7219">
			<stop  offset="0" style="stop-color:#6FCCDD"/>
			<stop  offset="1" style="stop-color:#EE559E"/>
		</linearGradient>
		<path id="XMLID_48_" class="st14" d="M192,269.6L192,269.6l-0.1-0.2c-2.9-5.1-2.3-11.3,4.6-15.4l0,0l0.2-0.2
			c1.8-1.1,3.1-2.9,3.6-5.2c0.9-4.4-1.9-8.8-6.3-9.7c-4.4-0.9-8.7,1.9-9.7,6.3c-0.5,2.3,0.1,4.6,1.4,6.4l0,0l0.2,0.3
			c4.5,6.5,2.4,12.4-2.4,15.8l0,0l-0.2,0.2c-1.1,0.8-1.9,2-2.2,3.5c-0.7,3.2,1.4,6.4,4.6,7.1c3.2,0.7,6.4-1.4,7.1-4.6
			C193.1,272.3,192.7,270.8,192,269.6z"/>
		<linearGradient id="XMLID_78_" gradientUnits="userSpaceOnUse" x1="98.6854" y1="212.8452" x2="188.71" y2="293.7764">
			<stop  offset="0" style="stop-color:#6FCCDD"/>
			<stop  offset="1" style="stop-color:#EE559E"/>
		</linearGradient>
		<circle id="XMLID_47_" class="st15" cx="183.4" cy="289" r="2.7"/>
		<linearGradient id="XMLID_79_" gradientUnits="userSpaceOnUse" x1="119.8357" y1="189.3185" x2="209.8602" y2="270.2497">
			<stop  offset="0" style="stop-color:#6FCCDD"/>
			<stop  offset="1" style="stop-color:#EE559E"/>
		</linearGradient>
		<path id="XMLID_46_" class="st16" d="M204,258.2c-3.2-0.7-6.3,1.4-7,4.5c-0.7,3.2,1.4,6.3,4.5,7c3.2,0.7,6.3-1.4,7-4.6
			C209.2,261.9,207.2,258.8,204,258.2z"/>
		<linearGradient id="XMLID_80_" gradientUnits="userSpaceOnUse" x1="89.4068" y1="223.1664" x2="179.4314" y2="304.0975">
			<stop  offset="0" style="stop-color:#6FCCDD"/>
			<stop  offset="1" style="stop-color:#EE559E"/>
		</linearGradient>
		<path id="XMLID_45_" class="st17" d="M167.2,273.8c-2.3,0.7-4,2.4-4.9,4.4l0,0l-0.2,0.3c-3.4,7.1-9.6,8.2-14.9,5.8l0,0l-0.2-0.1
			c-1.3-0.5-2.7-0.6-4.1-0.2c-3.1,1-4.8,4.4-3.8,7.6c1,3.1,4.4,4.8,7.6,3.8c1.5-0.5,2.6-1.5,3.4-2.8l0,0l0.1-0.2
			c3-5.1,8.6-7.7,15.7-3.8l0,0l0.3,0.1c1.9,1,4.1,1.2,6.3,0.5c4.3-1.4,6.6-6,5.2-10.3C176.1,274.7,171.5,272.3,167.2,273.8z"/>
		<linearGradient id="XMLID_81_" gradientUnits="userSpaceOnUse" x1="141.2392" y1="165.5101" x2="231.2638" y2="246.4412">
			<stop  offset="0" style="stop-color:#6FCCDD"/>
			<stop  offset="1" style="stop-color:#EE559E"/>
		</linearGradient>
		<path id="XMLID_44_" class="st18" d="M210.5,222.8c-1.5-1.4-3.9-1.2-5.2,0.3c-1.4,1.5-1.2,3.9,0.3,5.2c1.5,1.4,3.9,1.2,5.2-0.3
			C212.1,226.5,212,224.1,210.5,222.8z"/>
		<linearGradient id="XMLID_82_" gradientUnits="userSpaceOnUse" x1="71.613" y1="242.9595" x2="161.6376" y2="323.8906">
			<stop  offset="0" style="stop-color:#6FCCDD"/>
			<stop  offset="1" style="stop-color:#EE559E"/>
		</linearGradient>
		<path id="XMLID_43_" class="st19" d="M137.9,300.1c-1.9,0.6-3,2.7-2.4,4.7c0.6,1.9,2.7,3,4.7,2.4c1.9-0.6,3-2.7,2.4-4.7
			C142,300.5,139.9,299.5,137.9,300.1z"/>
		<linearGradient id="XMLID_83_" gradientUnits="userSpaceOnUse" x1="71.3332" y1="243.2708" x2="161.3577" y2="324.2019">
			<stop  offset="0" style="stop-color:#6FCCDD"/>
			<stop  offset="1" style="stop-color:#EE559E"/>
		</linearGradient>
		<path id="XMLID_42_" class="st20" d="M128,292.4c-1.4,0.5-2.2,2-1.7,3.4c0.5,1.4,2,2.2,3.4,1.7c1.4-0.5,2.2-2,1.7-3.4
			C130.9,292.7,129.4,291.9,128,292.4z"/>
		<linearGradient id="XMLID_84_" gradientUnits="userSpaceOnUse" x1="69.6967" y1="245.0911" x2="159.7212" y2="326.0223">
			<stop  offset="0" style="stop-color:#6FCCDD"/>
			<stop  offset="1" style="stop-color:#EE559E"/>
		</linearGradient>
		<path id="XMLID_41_" class="st21" d="M104.1,276c-2.2,2.4-2,6.1,0.5,8.3c2.4,2.2,6.1,2,8.3-0.5c2.2-2.4,2-6.1-0.5-8.3
			C110,273.4,106.2,273.6,104.1,276z"/>
		<linearGradient id="XMLID_85_" gradientUnits="userSpaceOnUse" x1="83.2915" y1="229.9688" x2="173.3161" y2="310.8999">
			<stop  offset="0" style="stop-color:#6FCCDD"/>
			<stop  offset="1" style="stop-color:#EE559E"/>
		</linearGradient>
		<path id="XMLID_40_" class="st22" d="M158.4,293.6c-3.1,1-4.8,4.3-3.7,7.4c1,3.1,4.3,4.8,7.4,3.7c3.1-1,4.8-4.3,3.7-7.4
			C164.8,294.3,161.5,292.6,158.4,293.6z"/>
		<linearGradient id="XMLID_86_" gradientUnits="userSpaceOnUse" x1="78.9529" y1="234.7949" x2="168.9774" y2="315.7261">
			<stop  offset="0" style="stop-color:#6FCCDD"/>
			<stop  offset="1" style="stop-color:#EE559E"/>
		</linearGradient>
		<path id="XMLID_39_" class="st23" d="M133.9,273.2c-1.8-1.6-4.1-2.2-6.3-2l0,0l-0.4,0c-7.9,0.6-11.9-4.2-12.5-10l0,0l0-0.3
			c-0.2-1.4-0.8-2.6-1.9-3.6c-2.5-2.2-6.2-2-8.5,0.5c-2.2,2.5-2,6.2,0.5,8.5c1.2,1,2.6,1.5,4.1,1.5l0,0l0.3,0
			c5.9,0,11,3.6,11.1,11.7l0,0l0,0.3c0.1,2.1,1,4.2,2.7,5.7c3.4,3,8.5,2.7,11.5-0.6C137.6,281.4,137.3,276.2,133.9,273.2z"/>
		<linearGradient id="XMLID_87_" gradientUnits="userSpaceOnUse" x1="95.7697" y1="216.0885" x2="185.7943" y2="297.0197">
			<stop  offset="0" style="stop-color:#6FCCDD"/>
			<stop  offset="1" style="stop-color:#EE559E"/>
		</linearGradient>
		<path id="XMLID_38_" class="st24" d="M108.1,250.5c4.4,0.9,8.8-1.9,9.7-6.3c0.5-2.3-0.1-4.6-1.4-6.4l0,0l-0.2-0.3
			c-4.5-6.5-2.4-12.4,2.4-15.8l0,0l0.2-0.2c1.1-0.8,1.9-2,2.2-3.5c0.7-3.2-1.4-6.4-4.6-7.1c-3.2-0.7-6.4,1.4-7.1,4.6
			c-0.3,1.5,0,3,0.7,4.3l0,0l0.1,0.2c2.9,5.1,2.3,11.3-4.6,15.4l0,0l-0.2,0.2c-1.8,1.1-3.1,2.9-3.6,5.2
			C100.8,245.2,103.7,249.6,108.1,250.5z"/>
	</g>
	<g id="XMLID_3_">
		<g id="XMLID_21_">
			<path id="XMLID_36_" class="st25" d="M251.1,237h-13.8v-4.5h14.6v2.3l4.5-1v-0.5c0-1.8-0.4-3-1.3-3.7c-0.8-0.6-2.3-1-4.3-1h-12.6
				c-2.1,0-3.6,0.3-4.4,1s-1.2,2-1.2,4v2.4c0,2,0.4,3.3,1.2,4s2.3,1,4.4,1h13.7v4.9h-15.6v-2.5l-4.6,0.9v0.6c0,2,0.4,3.3,1.2,4
				c0.8,0.7,2.2,1,4.4,1h13.8c2.1,0,3.6-0.3,4.4-1c0.8-0.7,1.2-2,1.2-4v-2.9c0-2-0.4-3.3-1.2-4C254.7,237.4,253.2,237,251.1,237z"/>
			<polygon id="XMLID_35_" class="st25" points="271,240.8 281.2,240.8 281.2,237.1 271,237.1 271,232.5 288.6,232.5 288.6,228.8 
				265.8,228.8 265.8,250 288.8,250 288.8,246 271,246 			"/>
			<path id="XMLID_32_" class="st25" d="M315.7,242c3.3,0,5-1.4,5-4.1v-5c0-2.7-1.7-4.1-5-4.1h-19.1V250h5.1v-8h4.9l8.9,8h7.4
				l-10.1-8H315.7z M301.7,238.3v-5.9h11.8c1.6,0,2.4,0.6,2.4,1.7v2.5c0,1.1-0.8,1.7-2.4,1.7H301.7z"/>
			<path id="XMLID_29_" class="st25" d="M350.9,228.8h-16.4c-2.1,0-3.6,0.3-4.4,1c-0.8,0.7-1.2,2-1.2,4V245c0,2,0.4,3.3,1.2,4
				c0.8,0.7,2.2,1,4.4,1h16.4c2.1,0,3.6-0.3,4.3-1c0.8-0.7,1.2-2,1.2-4v-11.2c0-2-0.4-3.3-1.2-4C354.5,229.1,353,228.8,350.9,228.8z
				 M351.2,245.9h-17v-13.2h17V245.9z"/>
			<polygon id="XMLID_28_" class="st25" points="362.8,232.6 373.1,232.6 373.1,250 378.2,250 378.2,232.6 388.5,232.6 388.5,228.8 
				362.8,228.8 			"/>
			<path id="XMLID_25_" class="st25" d="M416.9,228.8h-16.4c-2.1,0-3.6,0.3-4.4,1c-0.8,0.7-1.2,2-1.2,4V245c0,2,0.4,3.3,1.2,4
				c0.8,0.7,2.2,1,4.4,1h16.4c2.1,0,3.6-0.3,4.3-1c0.8-0.7,1.2-2,1.2-4v-11.2c0-2-0.4-3.3-1.2-4C420.5,229.1,419,228.8,416.9,228.8z
				 M417.2,245.9h-17v-13.2h17V245.9z"/>
			<polygon id="XMLID_24_" class="st25" points="453.1,242.9 435.1,228.8 431.6,228.8 431.6,250 436.3,250 436.3,235.7 454.2,250 
				457.8,250 457.8,228.8 453.1,228.8 			"/>
			<rect id="XMLID_23_" x="467.6" y="228.8" class="st25" width="5.2" height="21.2"/>
			<polygon id="XMLID_22_" class="st25" points="504,228.8 504,242.9 486,228.8 482.5,228.8 482.5,250 487.2,250 487.2,235.7 
				505.1,250 508.7,250 508.7,228.8 			"/>
		</g>
		<g id="XMLID_4_">
			<polygon id="XMLID_20_" class="st26" points="231.7,266.4 237.9,266.4 237.9,276.8 241,276.8 241,266.4 247.1,266.4 247.1,264.1 
				231.7,264.1 			"/>
			<polygon id="XMLID_19_" class="st26" points="259.3,271.3 265.5,271.3 265.5,269.1 259.3,269.1 259.3,266.3 269.9,266.3 
				269.9,264.1 256.2,264.1 256.2,276.8 270,276.8 270,274.4 259.3,274.4 			"/>
			<path id="XMLID_18_" class="st26" d="M290.5,264.1h-7.9c-1.3,0-2.2,0.2-2.6,0.6c-0.5,0.4-0.7,1.2-0.7,2.4v6.7
				c0,1.2,0.2,2,0.7,2.4s1.3,0.6,2.6,0.6h7.9c1.3,0,2.2-0.2,2.6-0.6c0.5-0.4,0.7-1.2,0.7-2.4v-1.5l-3.1-0.6v2.7h-8.3v-7.9h8.3v2.3
				l3.1-0.5v-1.2c0-1.2-0.2-2-0.7-2.4C292.7,264.3,291.8,264.1,290.5,264.1z"/>
			<polygon id="XMLID_17_" class="st26" points="316.8,268.9 307.1,268.9 307.1,264.1 304,264.1 304,276.8 307.1,276.8 307.1,271.4 
				316.8,271.4 316.8,276.8 319.9,276.8 319.9,264.1 316.8,264.1 			"/>
			<polygon id="XMLID_16_" class="st26" points="343.6,272.5 332.8,264.1 330.7,264.1 330.7,276.8 333.5,276.8 333.5,268.2 
				344.3,276.8 346.4,276.8 346.4,264.1 343.6,264.1 			"/>
			<path id="XMLID_13_" class="st26" d="M370,264.1h-9.9c-1.3,0-2.2,0.2-2.6,0.6c-0.5,0.4-0.7,1.2-0.7,2.4v6.7c0,1.2,0.2,2,0.7,2.4
				s1.3,0.6,2.6,0.6h9.9c1.3,0,2.1-0.2,2.6-0.6s0.7-1.2,0.7-2.4v-6.7c0-1.2-0.2-2-0.7-2.4C372.2,264.3,371.3,264.1,370,264.1z
				 M370.2,274.4H360v-7.9h10.2V274.4z"/>
			<polygon id="XMLID_12_" class="st26" points="386.9,264.1 383.8,264.1 383.8,276.8 396.9,276.8 396.9,274.4 386.9,274.4 			"/>
			<path id="XMLID_9_" class="st26" d="M418.3,264.1h-9.9c-1.3,0-2.2,0.2-2.6,0.6c-0.5,0.4-0.7,1.2-0.7,2.4v6.7c0,1.2,0.2,2,0.7,2.4
				s1.3,0.6,2.6,0.6h9.9c1.3,0,2.1-0.2,2.6-0.6s0.7-1.2,0.7-2.4v-6.7c0-1.2-0.2-2-0.7-2.4C420.5,264.3,419.6,264.1,418.3,264.1z
				 M418.5,274.4h-10.2v-7.9h10.2V274.4z"/>
			<path id="XMLID_8_" class="st26" d="M444.2,264.1H435c-1.3,0-2.1,0.2-2.6,0.6c-0.5,0.4-0.7,1.2-0.7,2.4v6.7c0,1.2,0.2,2,0.7,2.4
				s1.3,0.6,2.6,0.6h9.2c1.3,0,2.2-0.2,2.6-0.6c0.5-0.4,0.7-1.2,0.7-2.4v-4.4h-8.1v2.3h5.1v2.7h-9.7v-7.9h9.7v1.4l3-0.5v-0.3
				c0-1.1-0.2-1.9-0.7-2.3C446.3,264.3,445.5,264.1,444.2,264.1z"/>
			<rect id="XMLID_7_" x="457.9" y="264.1" class="st26" width="3.1" height="12.7"/>
			<polygon id="XMLID_6_" class="st26" points="474.9,271.3 481,271.3 481,269.1 474.9,269.1 474.9,266.3 485.4,266.3 485.4,264.1 
				471.7,264.1 471.7,276.8 485.5,276.8 485.5,274.4 474.9,274.4 			"/>
			<path id="XMLID_5_" class="st26" d="M509,269.7c-0.5-0.4-1.3-0.6-2.6-0.6h-8.3v-2.7h8.8v1.4l2.7-0.6v-0.3c0-1.1-0.3-1.8-0.8-2.2
				s-1.4-0.6-2.6-0.6h-7.5c-1.3,0-2.1,0.2-2.6,0.6c-0.5,0.4-0.7,1.2-0.7,2.4v1.4c0,1.2,0.2,2,0.7,2.4c0.5,0.4,1.4,0.6,2.6,0.6h8.2
				v2.9h-9.4v-1.5l-2.8,0.5v0.4c0,1.2,0.2,2,0.7,2.4c0.5,0.4,1.3,0.6,2.6,0.6h8.3c1.3,0,2.2-0.2,2.6-0.6s0.7-1.2,0.7-2.4V272
				C509.7,270.9,509.5,270.1,509,269.7z"/>
		</g>
	</g>
</g>
</svg>
